<?xml version="1.0" encoding="UTF-8"?>
<svg id="Layer_2" data-name="Layer 2" xmlns="http://www.w3.org/2000/svg" viewBox="0 0 40 40">
  <defs>
    <style>
      .cls-1 {
        fill: #dd523a;
      }

      .cls-2 {
        stroke: #dd523a;
        stroke-miterlimit: 10;
      }

      .cls-2, .cls-3 {
        fill: #fff;
      }

      .cls-4 {
        fill: #da3c32;
      }
    </style>
  </defs>
  <g id="Layer_1-2" data-name="Layer 1">
    <g>
      <circle class="cls-4" cx="20" cy="20" r="20"/>
      <g>
        <path class="cls-2" d="M16.61,5.84h6.78c.86,0,1.56.7,1.56,1.56v7.8h-9.89v-7.8c0-.86.7-1.56,1.56-1.56Z"/>
        <path class="cls-2" d="M11.88,10.28h16.25c1.08,0,1.95.87,1.95,1.95v7.4H9.93v-7.4c0-1.08.87-1.95,1.95-1.95Z"/>
        <path class="cls-3" d="M22.69,33.88c-.1,0-.2-.03-.29-.09l-2.16-1.57c-.16-.12-.39-.12-.55,0l-1.9,1.42c-.17.13-.41.13-.59,0l-2.01-1.43c-.17-.12-.39-.11-.55.01l-1.93,1.54c-.22.17-.53.13-.7-.08-.17-.22-.14-.53.08-.7l2.5-1.99c.17-.14.42-.14.6-.02l2.3,1.64,2.17-1.63c.18-.13.42-.13.59,0l2.74,1.99c.22.16.27.48.11.7-.1.13-.25.21-.41.21Z"/>
        <rect class="cls-1" x="17.81" y="12.43" width="4.39" height="7.21" rx="1.16" ry="1.16"/>
        <rect class="cls-1" x="11.97" y="12.43" width="4.39" height="7.21" rx="1.16" ry="1.16"/>
        <rect class="cls-1" x="23.64" y="12.43" width="4.39" height="7.21" rx="1.16" ry="1.16"/>
        <path class="cls-2" d="M8.73,26.93c.28-.23.65-.35,1.02-.35.34,0,.67.1.94.3l.86.61c.46.33,1.08.32,1.54-.02l.75-.56c.28-.21.63-.33.98-.33s.68.11.96.31l.9.65c.48.35,1.13.33,1.59-.05l.67-.55c.29-.24.66-.37,1.04-.37s.71.12.99.34l.76.59c.47.37,1.13.36,1.6,0l.72-.57c.28-.23.64-.35,1.01-.35s.71.12.99.34l.83.63c.47.35,1.11.35,1.58,0l.82-.63c.29-.22.64-.33.99-.33.37,0,.74.13,1.03.37l.73.59.97-4.28c0-1.22-.69-2.33-1.78-2.87l-7.13-3.55c-2.59-1.29-5.63-1.29-8.22,0l-7.13,3.55c-1.09.54-1.78,1.66-1.78,2.87l.97,4.29.78-.62Z"/>
        <path class="cls-3" d="M7.25,30.14c-.15,0-.29-.06-.39-.19-.17-.22-.14-.53.08-.7l2.5-1.98c.17-.14.42-.15.6-.02l2.3,1.64,2.17-1.63c.18-.13.42-.13.59,0l2.43,1.76,2.12-1.74c.18-.15.44-.15.62,0l2.27,1.75,2.21-1.74c.18-.14.43-.14.61,0l2.31,1.75,2.3-1.75c.18-.14.44-.14.62,0l2.46,1.99c.21.17.25.49.08.7-.17.22-.49.25-.7.08l-1.89-1.52c-.16-.13-.38-.13-.55,0l-2.01,1.54c-.18.14-.43.14-.61,0l-2.04-1.54c-.16-.12-.38-.12-.54,0l-1.94,1.53c-.18.14-.43.14-.62,0l-1.98-1.53c-.16-.13-.39-.12-.55,0l-1.84,1.51c-.18.14-.43.15-.61.02l-2.17-1.58c-.16-.11-.37-.11-.53,0l-1.91,1.43c-.17.13-.41.13-.59,0l-2.02-1.44c-.16-.11-.38-.11-.53.01l-1.94,1.54c-.09.07-.2.11-.31.11Z"/>
      </g>
    </g>
  </g>
</svg>