<?xml version="1.0" encoding="UTF-8"?>
<svg id="Layer_2" data-name="Layer 2" xmlns="http://www.w3.org/2000/svg" viewBox="0 0 40 40">
  <defs>
    <style>
      .cls-1 {
        fill: #da3c32;
      }

      .cls-2 {
        fill: #fff;
      }
    </style>
  </defs>
  <g id="Layer_1-2" data-name="Layer 1">
    <g id="Layer_2-2" data-name="Layer 2">
      <g id="uuid-5f7459a0-5a86-41d0-9aab-954213f63781" data-name="Layer 1-2">
        <circle class="cls-1" cx="20" cy="20" r="20"/>
        <path class="cls-2" d="M26.54,24.77v-6h.46v-5.43h-.45v-1.28h.4v-3l-2.15-4.86c-.11-.28-.43-.41-.7-.3-.13.05-.24.16-.3.3l-2.18,4.86v3h.51v1.28h-.46v5.44h.46v5.91l-1,3.59v7.38h6.39v-7.38l-.98-3.51Z"/>
        <rect class="cls-1" x="23.86" y="28.14" width=".75" height="8.13"/>
        <path class="cls-2" d="M18.47,35.72l-6.38-.05-.12-22.71,6.5-7.02v29.78ZM13.09,34.68l4.38.03V8.5l-4.5,4.86.12,21.33Z"/>
        <rect class="cls-2" x="12.7" y="13.13" width="10.39" height="1"/>
        <rect class="cls-2" x="12.7" y="17.45" width="4.88" height="1"/>
        <rect class="cls-2" x="12.7" y="21.77" width="4.88" height="1"/>
        <rect class="cls-2" x="12.7" y="26.09" width="4.88" height="1"/>
        <rect class="cls-2" x="12.7" y="30.41" width="8.99" height="1"/>
      </g>
    </g>
  </g>
</svg>