<?xml version="1.0" encoding="UTF-8"?>
<svg id="Layer_2" data-name="Layer 2" xmlns="http://www.w3.org/2000/svg" viewBox="0 0 40 40">
  <defs>
    <style>
      .cls-1 {
        fill: #dc4736;
      }

      .cls-2 {
        fill: #da3c32;
      }

      .cls-3 {
        fill: #fff;
      }
    </style>
  </defs>
  <g id="Layer_1-2" data-name="Layer 1">
    <g>
      <circle class="cls-2" cx="20" cy="20" r="20"/>
      <g>
        <path class="cls-3" d="M22.86,23.53v-1.74c0-.29.23-.52.52-.52h1.9c.29,0,.52-.23.52-.52v-3.39c0-.7.56-1.26,1.26-1.26h3.34c.5,0,.95.29,1.15.75l2.06,4.69h.86c.91,0,1.65.74,1.65,1.65v3.24c0,.38-.31.68-.68.68h-2.53s-28.49,0-28.49,0c-.3,0-.54-.24-.54-.54v-1.99c0-.3.24-.54.54-.54h17.92c.29,0,.52-.23.52-.52Z"/>
        <path class="cls-3" d="M24.9,4.4l-.23.91c-.39,1.59-1.31,3.11-2.6,4.29l-10.87,9.89c-1.19,1.09-.34,1.76-1.17,2.51l-.75.68c-.28.25-.72.23-.97-.05l-1.56-1.71-1.56-1.7c-.26-.28-.24-.72.05-.98l.74-.67c.83-.75,1.42.15,2.6-.92l10.87-9.89c1.29-1.18,2.88-1.94,4.51-2.19l.93-.14v-.02Z"/>
        <polygon class="cls-1" points="32.3 21.61 30.32 17.35 28.43 17.35 28.43 21.61 32.3 21.61"/>
        <circle class="cls-3" cx="33.17" cy="27.12" r="1.96"/>
        <circle class="cls-3" cx="6.97" cy="27.12" r="1.96"/>
        <circle class="cls-3" cx="11.83" cy="27.12" r="1.96"/>
        <path class="cls-3" d="M9.13,25.16l7.19-6.51c.76-.69,1.99-.15,1.99.88v5.63"/>
      </g>
    </g>
  </g>
</svg>