<?xml version="1.0" encoding="UTF-8"?>
<svg id="Layer_2" data-name="Layer 2" xmlns="http://www.w3.org/2000/svg" viewBox="0 0 40 40">
  <defs>
    <style>
      .cls-1 {
        fill: none;
      }

      .cls-2 {
        fill: #da3c32;
      }

      .cls-3 {
        fill: #fff;
      }
    </style>
  </defs>
  <g id="Layer_1-2" data-name="Layer 1">
    <g id="Layer_2-2" data-name="Layer 2">
      <g id="uuid-f431418f-7013-4660-b0c9-8dfdc808cec4" data-name="Layer 1-2">
        <circle class="cls-2" cx="20" cy="20" r="20"/>
        <path class="cls-1" d="M23.08,10.78v2.86h4.12v-.1l-.06-.45c0-.09,0-.17,0-.26-.03-.19-.08-.37-.13-.55v-.14c-.07-.22-.14-.43-.22-.64h0c-.09-.23-.19-.46-.31-.68l-3.4-.04Z"/>
        <path class="cls-1" d="M23.08,17.51h3.31c.12-.22.22-.45.31-.68h0c.08-.21.15-.42.22-.64l.08-.19c.05-.19.1-.37.13-.55,0-.09,0-.17,0-.26l.06-.45v-.11h-4.11v2.88Z"/>
        <rect class="cls-1" x="17.92" y="10.78" width="4.15" height="2.86"/>
        <rect class="cls-1" x="17.92" y="14.64" width="4.15" height="2.86"/>
        <path class="cls-1" d="M25.75,9.78h0c-.16-.21-.33-.41-.51-.6h0c-.39-.41-.83-.77-1.31-1.07h-.08c-.22-.14-.44-.27-.68-.38h0v2.05h2.58Z"/>
        <path class="cls-1" d="M16.92,10.78h-3.31c-.12.22-.22.45-.31.68h0c-.09.21-.16.43-.23.65v.14c-.05.18-.1.36-.13.55,0,.09,0,.17,0,.26l-.06.45v.1h4.12l-.08-2.83Z"/>
        <path class="cls-1" d="M17.92,9.78h4.16v-2.55c-.33-.1-.66-.17-1-.22h-.08c-.66-.1-1.34-.1-2-.01h-.13c-.34.05-.67.12-1,.22l.05,2.56Z"/>
        <path class="cls-1" d="M16.92,7.61h0c-.24.11-.48.24-.71.38h-.05c-.48.31-.92.67-1.32,1.08h0c-.18.2-.36.4-.52.62h2.67l-.07-2.08Z"/>
        <path class="cls-1" d="M16.92,17.51v-2.87h-4.12v.11l.06.45c0,.09,0,.17,0,.26.04.18.08.36.14.54v.14c.07.22.14.44.23.65h0c.09.23.19.46.31.68l3.38.04Z"/>
        <path class="cls-3" d="M29.79,32.36l-2.24,1.64-2.25-1.64c-.18-.14-.42-.14-.6,0l-2.54,1.91c-.22.17-.27.48-.1.7h0c.17.22.48.27.7.1h0l2.24-1.69,2.25,1.69c.18.13.42.13.6,0l2.54-1.91c.22-.17.27-.48.1-.7h0c-.16-.22-.46-.27-.68-.11,0,0-.01,0-.02.01Z"/>
        <path class="cls-3" d="M15.12,32.36c-.18-.14-.42-.14-.6,0l-2.52,1.91c-.22.17-.26.48-.1.7.17.22.48.27.7.1l2.25-1.69,2.24,1.69c.09.07.19.1.3.1.16,0,.31-.07.4-.2.17-.22.13-.53-.09-.7l-2.58-1.91Z"/>
        <path class="cls-3" d="M33,30.82l-2.55-1.91c-.18-.14-.42-.14-.6,0l-1.64,1.23c.31-2.84.45-5.7.42-8.56-.04-.64-.16-1.26-.36-1.87,3.08-4.58,1.86-10.8-2.72-13.88-4.58-3.08-10.8-1.86-13.88,2.72-2.27,3.37-2.27,7.78,0,11.16-.2.61-.32,1.23-.36,1.87-.03,2.86.11,5.72.42,8.56l-1.64-1.23c-.18-.14-.42-.14-.6,0l-2.49,1.91c-.22.17-.27.48-.1.7.09.13.24.2.4.2.11,0,.21-.03.3-.1l2.25-1.69,2.24,1.69h.05s.09,0,.14,0h.09c.1,0,.19-.03.27-.09l2.25-1.69,2.24,1.69h0s.07,0,.1,0c.06.04.13.06.2.07.07,0,.14-.03.2-.07h.1l2.27-1.6,2.24,1.69c.18.13.43.13.61,0l2.24-1.69,2.25,1.69c.09.07.19.1.3.1h0c.07.01.13.01.2,0h.1l2.24-1.69,2.25,1.69c.22.17.53.12.7-.1h0c.19-.2.18-.53-.02-.72-.03-.03-.07-.06-.11-.08ZM20.3,28.91c-.18-.13-.42-.13-.6,0l-2.25,1.68h0l-2-1.53v-2.75c0-.28-.22-.5-.5-.5s-.5.22-.5.5v2.75l-1.63,1.22c-.32-2.87-.46-5.75-.44-8.63.02-.32.06-.64.13-.95,0-.21.1-.4.15-.58s.14-.39.21-.56c.12-.26.26-.5.42-.73.08-.12.16-.22.26-.32h3.41v1.49c0,.27.23.49.5.5.28,0,.5-.22.5-.5v-1.5h4.16v1.5c0,.28.22.5.5.5.27,0,.49-.23.5-.5v-1.5h3.41c.06.07.16.18.26.32.16.23.3.47.41.73.08.18.15.37.21.56.06.19.11.38.15.58.08.31.12.63.14.95.02,2.88-.12,5.76-.43,8.63l-1.84-1.37c-.18-.14-.42-.14-.6,0l-2.24,1.68-2.29-1.67ZM14.3,9.74c.16-.22.34-.42.52-.62h0c.39-.42.84-.8,1.32-1.12h.05c.23-.14.47-.27.71-.38h0v2.16h-2.65l.05-.04ZM23.12,7.63c.24.11.46.24.68.38h.08c.48.3.92.66,1.31,1.07h0c.18.19.35.39.51.6h-2.62v-2.06h.04ZM22.12,7.23v2.55h-4.2v-2.55c.33-.1.66-.17,1-.22h.08c.66-.1,1.34-.1,2-.01h.14c.32.05.63.13.94.23h.04ZM12.8,13.54l.06-.45c0-.09,0-.17,0-.26.03-.19.08-.37.13-.55v-.14c.07-.22.14-.44.23-.65h0c.09-.23.19-.46.31-.68h3.31v2.86h-4.04v-.13ZM17.92,10.78h4.16v2.86h-4.16v-2.86ZM23.08,10.78h3.31c.12.22.22.45.31.68h0c.08.21.15.42.22.64v.14c.05.18.1.36.13.55,0,.09,0,.17,0,.26l.06.45v.1h-4.03v-2.82ZM13.3,16.78h0c-.09-.21-.16-.43-.23-.65l-.07-.13c-.05-.18-.1-.36-.13-.55,0-.09,0-.17,0-.26l-.06-.45v-.11h4.12v2.87h-3.32c-.12-.22-.22-.44-.31-.67v-.05ZM17.92,14.59h4.16v2.87h-4.16v-2.87ZM23.08,14.59h4.12v.11l-.06.45c0,.09,0,.17,0,.26,0,.18-.08.36-.13.55v.14c-.07.22-.14.43-.22.64h0c-.09.23-.19.46-.31.68h-3.4v-2.83Z"/>
        <path class="cls-3" d="M20,21.72c-.13,0-.25.05-.34.14-.1.09-.16.22-.16.36v3c0,.28.22.5.5.5s.5-.22.5-.5v-3c0-.14-.06-.28-.17-.37-.09-.08-.21-.13-.33-.13Z"/>
        <path class="cls-3" d="M22.58,24c-.28,0-.5.22-.5.5v4c0,.28.22.5.5.5s.5-.22.5-.5v-4c0-.28-.22-.5-.5-.5Z"/>
      </g>
    </g>
  </g>
</svg>